<!--?xml version="1.0" encoding="utf-8"?-->
<!-- Generator: Adobe Illustrator 18.1.1, SVG Export Plug-In . SVG Version: 6.00 Build 0)  -->

<svg version="1.1" id="_x31_0" xmlns="http://www.w3.org/2000/svg" xmlns:xlink="http://www.w3.org/1999/xlink" x="0px" y="0px" viewBox="0 0 512 512" style="width: 256px; height: 256px; opacity: 1;" xml:space="preserve">
<style type="text/css">
	.st0{fill:#374149;}
</style>
<g>
	<path class="st0" d="M469.676,95.358L230.145,334.885c-19.258,19.258-45.016,29.687-72.516,29.378
		c-27.465-0.007-53.422-10.71-72.886-30.175c-19.45-19.45-30.156-45.406-30.156-73.086c0.328-18.582,4.785-35.308,13.262-50.027
		l9.676-16.797l2.461-4.191l36.73,36.73c2.156,2.156,5.812,1.386,6.918-1.45L161.39,128.4l13.833-35.324h-0.063l0.063-0.16
		l-8.25-0.004c-43.39-0.023-85.906,15.566-117.078,45.746C10.836,176.474-6.957,230.01,2.489,284.916
		c4.382,25.473,15.094,49.675,30.941,70.09c31.875,41.07,79.059,64.09,129.664,64.082c43.528-0.008,84.524-17.024,115.426-47.926
		L512,137.682L469.676,95.358z"></path>
</g>
</svg>
